<svg xmlns="http://www.w3.org/2000/svg" xmlns:xlink="http://www.w3.org/1999/xlink" width="32" height="32" viewBox="0 0 32 32"><defs><clipPath id="a"><rect width="32" height="32" transform="translate(4232 131)" fill="#474747"/></clipPath></defs><g transform="translate(-4232 -131)" clip-path="url(#a)"><g transform="translate(4232 131.268)"><g transform="translate(0 0)"><g transform="translate(13.199)"><path d="M2020.147,1563.733a3.2,3.2,0,0,1-2.272-5.47l10.133-10.139-10.133-10.138a3.206,3.206,0,0,1,4.538-4.531l12.393,12.4a3.206,3.206,0,0,1,0,4.531l-12.393,12.4a3.2,3.2,0,0,1-2.266.939Z" transform="translate(-2016.942 -1532.516)" fill="#fff"/></g><g transform="translate(0 12.405)"><path d="M2038.246,1542.8h-22.219a3.2,3.2,0,0,1,0-6.408h22.219a3.2,3.2,0,1,1,0,6.408Z" transform="translate(-2012.823 -1536.387)" fill="#fff"/></g></g></g></g></svg>