<svg xmlns="http://www.w3.org/2000/svg" width="408" height="408" viewBox="0 0 408 408"><g transform="translate(-892 -6906)"><circle cx="204" cy="204" r="204" transform="translate(892 6906)" fill="#343434"/><path d="M317.67,203.1,277.6,198.94l-78.628,68.649,40.073,4.137Z" transform="translate(839.68 6875.502)" fill="#b68505"/><path d="M416.829,206.165a148.548,148.548,0,1,0,11.681,57.76A148.675,148.675,0,0,0,416.829,206.165Zm-135.4,177.567a118.5,118.5,0,1,1,118.514-118.5A118.508,118.508,0,0,1,281.429,383.733Z" transform="translate(816.236 6846.413)" fill="#f7d000"/><path d="M246.549,163.083l-47.577,42.8v76.732l85.895-74.993a29.377,29.377,0,1,0-38.318-44.538Z" transform="translate(839.68 6860.479)" fill="#f7d000"/><path d="M264.264,321.559l47.577-42.8.036-76.736-85.931,75a29.376,29.376,0,1,0,38.318,44.535Z" transform="translate(845.474 6876.58)" fill="#f7d000"/></g></svg>